# xmcd
#
# Track frame offsets:
# 150
# 17674
# 39017
# 63904
# 80775
# 100098
# 117937
# 138343
# 159652
# 179201
#
# Disc length: 2689 seconds
#
#
# Revision: 0
# Processed by: cddbd v1.5.1PL0 Copyright (c) Steve Scherf et al.
# Submitted via: FreeRIP 2.80 
#
DISCID=7f0a7f0a
DTITLE=Various Artist - Cinta Sonata Lagi - Disc 2
DYEAR=1900
DGENRE=
TTITLE0=Anuar Zain - Keabadian Cinta
TTITLE1=Ning Baizura - Selagi Ada Cinta
TTITLE2=Hattan - Dewi
TTITLE3=Yantie and Ronnie - Bintang Kehidupan
TTITLE4=Fazley - Seandainya Daku Bersalah
TTITLE5=Spider - Kasih Latifah
TTITLE6=Amuk - Hakikat
TTITLE7=Zainal Abidin - Gaia
TTITLE8=Shanty - Oh... Kasih
TTITLE9=Zamani - Kala Hujan
EXTD=
EXTT0=
EXTT1=
EXTT2=
EXTT3=
EXTT4=
EXTT5=
EXTT6=
EXTT7=
EXTT8=
EXTT9=
PLAYORDER=
